<svg xmlns="http://www.w3.org/2000/svg" width="32" height="32" id="view"><path d="M16 7.98c-3.787 0-7.223 1.046-9.77 2.81C3.684 12.551 2 15.1 2 17.98a1 1 0 1 0 2 0c0-2.105 1.216-4.056 3.37-5.546C9.521 10.943 12.584 9.98 16 9.98c3.415 0 6.48.963 8.633 2.454C26.786 13.924 28 15.875 28 17.98a1 1 0 1 0 2 0c0-2.88-1.682-5.428-4.229-7.19C23.225 9.025 19.787 7.98 16 7.98Z" color="#000" font-family="sans-serif" font-weight="400" overflow="visible" style="line-height:normal;font-variant-ligatures:normal;font-variant-position:normal;font-variant-caps:normal;font-variant-numeric:normal;font-variant-alternates:normal;font-feature-settings:normal;text-indent:0;text-align:start;text-decoration-line:none;text-decoration-style:solid;text-decoration-color:#000;text-transform:none;text-orientation:mixed;shape-padding:0;isolation:auto;mix-blend-mode:normal"></path><path d="M16 13.98c-2.75 0-5 2.25-5 5s2.25 5 5 5 5-2.25 5-5-2.25-5-5-5zm0 2c1.669 0 3 1.332 3 3 0 1.67-1.331 3-3 3s-3-1.33-3-3c0-1.668 1.331-3 3-3z" color="#000" font-family="sans-serif" font-weight="400" overflow="visible" style="line-height:normal;font-variant-ligatures:normal;font-variant-position:normal;font-variant-caps:normal;font-variant-numeric:normal;font-variant-alternates:normal;font-feature-settings:normal;text-indent:0;text-align:start;text-decoration-line:none;text-decoration-style:solid;text-decoration-color:#000;text-transform:none;text-orientation:mixed;shape-padding:0;isolation:auto;mix-blend-mode:normal"></path></svg>